<svg xmlns="http://www.w3.org/2000/svg" viewBox="89.466 181 1487.034 598">
  <defs>
    <style>
      .cls-1, .cls-5 {
        fill: #323232;
      }

      .cls-1 {
        stroke: rgba(0,0,0,0);
      }

      .cls-2 {
        fill: #e11e16;
      }

      .cls-3 {
        fill: #029c3e;
      }

      .cls-4 {
        fill: #ffb612;
      }

      .cls-6 {
        fill: #1c5da6;
      }
    </style>
  </defs>
  <g id="_404" data-name="404" transform="translate(-499 -60)">
    <g id="_44" data-name="44" transform="translate(589 255.8)">
      <path id="Path_135" data-name="Path 135" class="cls-1" d="M353.2,79.8H440v40.8a15.948,15.948,0,0,1-3.8,10.8q-3.8,4.4-11.8,4.4H353.2V286.6H290.4V135.8H36.4a21.534,21.534,0,0,1-13.8-4.6,20.15,20.15,0,0,1-7.4-11.4L8,83.4l278.8-370h66.4ZM290.4-156.6q0-10.4.6-22.4a237.585,237.585,0,0,1,2.6-24.8L85.2,79.8H290.4Z" transform="translate(-8 286.6)"/>
      <path id="Path_134" data-name="Path 134" class="cls-1" d="M353.2,79.8H440v40.8a15.948,15.948,0,0,1-3.8,10.8q-3.8,4.4-11.8,4.4H353.2V286.6H290.4V135.8H36.4a21.534,21.534,0,0,1-13.8-4.6,20.15,20.15,0,0,1-7.4-11.4L8,83.4l278.8-370h66.4ZM290.4-156.6q0-10.4.6-22.4a237.585,237.585,0,0,1,2.6-24.8L85.2,79.8H290.4Z" transform="translate(1046 286.6)"/>
    </g>
    <g id="Circle" transform="translate(1035 241)">
      <path id="Intersection_2" data-name="Intersection 2" class="cls-2" d="M0,62V0C131.913,0,244.151,85.873,283.75,204.649L225.1,224.772C193.877,130.334,104.767,62,0,62Z" transform="translate(299 0.001)"/>
      <path id="Intersection_3" data-name="Intersection 3" class="cls-3" d="M0,289.614C61.092,246.7,101.1,175.708,101.1,95.547A236.021,236.021,0,0,0,88.691,19.812L147.445,0A297.765,297.765,0,0,1,163.1,95.547c0,101.131-50.471,190.7-127.545,244.835Z" transform="translate(434.902 203.453)"/>
      <path id="Intersection_4" data-name="Intersection 4" class="cls-4" d="M0,49.5,37.3,0A235.75,235.75,0,0,0,176.976,45.638,235.661,235.661,0,0,0,312.745,2.8l37.2,49.6a297.361,297.361,0,0,1-172.971,55.237A297.41,297.41,0,0,1,0,49.5Z" transform="translate(122.024 490.363)"/>
      <path id="Intersection_5" data-name="Intersection 5" class="cls-5" d="M0,92.419A297.853,297.853,0,0,1,14.614,0L73.279,20.1A236.205,236.205,0,0,0,62,92.419c0,79.052,38.9,149.187,98.571,192.267l-37.553,49.324C48.5,279.581,0,191.558,0,92.419Z" transform="translate(0 206.581)"/>
      <path id="Intersection_6" data-name="Intersection 6" class="cls-6" d="M0,209.913C38,88.417,151.594,0,285.45,0h.312l.625,62-.937,0C178.918,62,88.578,132.656,58.825,229.563Z" transform="translate(13.551 0)"/>
    </g>
  </g>
</svg>
